<svg id="visual" viewBox="0 0 900 600" width="900" height="600" xmlns="http://www.w3.org/2000/svg" xmlns:xlink="http://www.w3.org/1999/xlink" version="1.1"><g stroke-width="1" stroke-linejoin="bevel"><path d="M424 265L341 296L394 329Z" fill="#921455" stroke="#921455"></path><path d="M424 265L376 213L341 296Z" fill="#921455" stroke="#921455"></path><path d="M341 296L354 357L394 329Z" fill="#921455" stroke="#921455"></path><path d="M317 227L307 299L341 296Z" fill="#c21634" stroke="#c21634"></path><path d="M341 296L294 348L354 357Z" fill="#7d1c5a" stroke="#7d1c5a"></path><path d="M376 213L317 227L341 296Z" fill="#68225b" stroke="#68225b"></path><path d="M424 265L414 188L376 213Z" fill="#a40b4d" stroke="#a40b4d"></path><path d="M376 213L348 178L317 227Z" fill="#a40b4d" stroke="#a40b4d"></path><path d="M354 357L402 386L394 329Z" fill="#a40b4d" stroke="#a40b4d"></path><path d="M394 329L502 305L424 265Z" fill="#2c2449" stroke="#2c2449"></path><path d="M236 301L294 348L307 299Z" fill="#68225b" stroke="#68225b"></path><path d="M307 299L294 348L341 296Z" fill="#7d1c5a" stroke="#7d1c5a"></path><path d="M354 357L389 401L402 386Z" fill="#a40b4d" stroke="#a40b4d"></path><path d="M414 188L348 178L376 213Z" fill="#7d1c5a" stroke="#7d1c5a"></path><path d="M315 423L389 401L354 357Z" fill="#921455" stroke="#921455"></path><path d="M389 401L407 401L402 386Z" fill="#2c2449" stroke="#2c2449"></path><path d="M470 382L502 305L394 329Z" fill="#1e213d" stroke="#1e213d"></path><path d="M470 382L394 329L402 386Z" fill="#a40b4d" stroke="#a40b4d"></path><path d="M424 265L492 234L414 188Z" fill="#c21634" stroke="#c21634"></path><path d="M502 305L492 234L424 265Z" fill="#3e2552" stroke="#3e2552"></path><path d="M407 401L470 382L402 386Z" fill="#68225b" stroke="#68225b"></path><path d="M266 205L258 254L317 227Z" fill="#2c2449" stroke="#2c2449"></path><path d="M317 227L258 254L307 299Z" fill="#7d1c5a" stroke="#7d1c5a"></path><path d="M470 382L514 333L502 305Z" fill="#b50942" stroke="#b50942"></path><path d="M532 196L502 191L492 234Z" fill="#522558" stroke="#522558"></path><path d="M281 159L266 205L317 227Z" fill="#522558" stroke="#522558"></path><path d="M203 331L236 301L163 259Z" fill="#921455" stroke="#921455"></path><path d="M258 254L236 301L307 299Z" fill="#c21634" stroke="#c21634"></path><path d="M509 124L390 135L414 188Z" fill="#1e213d" stroke="#1e213d"></path><path d="M414 188L390 135L348 178Z" fill="#c21634" stroke="#c21634"></path><path d="M348 178L281 159L317 227Z" fill="#68225b" stroke="#68225b"></path><path d="M532 196L492 234L564 257Z" fill="#921455" stroke="#921455"></path><path d="M492 234L502 191L414 188Z" fill="#b50942" stroke="#b50942"></path><path d="M555 396L531 329L514 333Z" fill="#921455" stroke="#921455"></path><path d="M514 333L531 329L502 305Z" fill="#b50942" stroke="#b50942"></path><path d="M259 388L315 423L294 348Z" fill="#3e2552" stroke="#3e2552"></path><path d="M294 348L315 423L354 357Z" fill="#2c2449" stroke="#2c2449"></path><path d="M389 401L411 455L407 401Z" fill="#1e213d" stroke="#1e213d"></path><path d="M236 301L259 388L294 348Z" fill="#2c2449" stroke="#2c2449"></path><path d="M366 90L281 159L348 178Z" fill="#7d1c5a" stroke="#7d1c5a"></path><path d="M315 423L411 455L389 401Z" fill="#3e2552" stroke="#3e2552"></path><path d="M407 401L486 443L470 382Z" fill="#7d1c5a" stroke="#7d1c5a"></path><path d="M470 382L555 396L514 333Z" fill="#68225b" stroke="#68225b"></path><path d="M564 257L492 234L502 305Z" fill="#a40b4d" stroke="#a40b4d"></path><path d="M399 52L366 90L390 135Z" fill="#b50942" stroke="#b50942"></path><path d="M531 329L564 257L502 305Z" fill="#2c2449" stroke="#2c2449"></path><path d="M163 259L236 301L258 254Z" fill="#2c2449" stroke="#2c2449"></path><path d="M236 301L203 331L259 388Z" fill="#b50942" stroke="#b50942"></path><path d="M163 259L258 254L174 175Z" fill="#c21634" stroke="#c21634"></path><path d="M411 455L486 443L407 401Z" fill="#c21634" stroke="#c21634"></path><path d="M531 329L595 293L564 257Z" fill="#cb2821" stroke="#cb2821"></path><path d="M509 124L414 188L502 191Z" fill="#921455" stroke="#921455"></path><path d="M390 135L366 90L348 178Z" fill="#1e213d" stroke="#1e213d"></path><path d="M171 390L264 445L259 388Z" fill="#3e2552" stroke="#3e2552"></path><path d="M259 388L264 445L315 423Z" fill="#cb2821" stroke="#cb2821"></path><path d="M315 423L351 502L411 455Z" fill="#921455" stroke="#921455"></path><path d="M486 443L555 396L470 382Z" fill="#68225b" stroke="#68225b"></path><path d="M566 102L509 124L532 196Z" fill="#c21634" stroke="#c21634"></path><path d="M532 196L509 124L502 191Z" fill="#921455" stroke="#921455"></path><path d="M594 379L595 293L531 329Z" fill="#cb2821" stroke="#cb2821"></path><path d="M564 257L608 234L532 196Z" fill="#7d1c5a" stroke="#7d1c5a"></path><path d="M278 497L351 502L315 423Z" fill="#1e213d" stroke="#1e213d"></path><path d="M477 508L530 463L486 443Z" fill="#1e213d" stroke="#1e213d"></path><path d="M366 90L282 90L281 159Z" fill="#522558" stroke="#522558"></path><path d="M174 175L258 254L266 205Z" fill="#522558" stroke="#522558"></path><path d="M591 483L579 390L555 396Z" fill="#a40b4d" stroke="#a40b4d"></path><path d="M555 396L579 390L531 329Z" fill="#a40b4d" stroke="#a40b4d"></path><path d="M212 133L266 205L281 159Z" fill="#68225b" stroke="#68225b"></path><path d="M203 331L171 390L259 388Z" fill="#1e213d" stroke="#1e213d"></path><path d="M643 210L608 234L665 308Z" fill="#c21634" stroke="#c21634"></path><path d="M595 293L608 234L564 257Z" fill="#3e2552" stroke="#3e2552"></path><path d="M579 390L594 379L531 329Z" fill="#cb2821" stroke="#cb2821"></path><path d="M486 443L530 463L555 396Z" fill="#7d1c5a" stroke="#7d1c5a"></path><path d="M579 390L654 408L594 379Z" fill="#cb2821" stroke="#cb2821"></path><path d="M477 508L486 443L411 455Z" fill="#68225b" stroke="#68225b"></path><path d="M282 90L212 133L281 159Z" fill="#b50942" stroke="#b50942"></path><path d="M163 259L151 301L203 331Z" fill="#921455" stroke="#921455"></path><path d="M481 67L399 52L390 135Z" fill="#2c2449" stroke="#2c2449"></path><path d="M366 90L270 62L282 90Z" fill="#b50942" stroke="#b50942"></path><path d="M235 483L278 497L264 445Z" fill="#7d1c5a" stroke="#7d1c5a"></path><path d="M264 445L278 497L315 423Z" fill="#a40b4d" stroke="#a40b4d"></path><path d="M212 133L174 175L266 205Z" fill="#1e213d" stroke="#1e213d"></path><path d="M163 259L117 237L151 301Z" fill="#921455" stroke="#921455"></path><path d="M151 301L171 390L203 331Z" fill="#1e213d" stroke="#1e213d"></path><path d="M530 83L481 67L509 124Z" fill="#1e213d" stroke="#1e213d"></path><path d="M509 124L481 67L390 135Z" fill="#522558" stroke="#522558"></path><path d="M380 545L477 508L411 455Z" fill="#3e2552" stroke="#3e2552"></path><path d="M427 0L386 41L399 52Z" fill="#3e2552" stroke="#3e2552"></path><path d="M399 52L386 41L366 90Z" fill="#3e2552" stroke="#3e2552"></path><path d="M210 74L186 138L212 133Z" fill="#c21634" stroke="#c21634"></path><path d="M212 133L186 138L174 175Z" fill="#c21634" stroke="#c21634"></path><path d="M171 390L235 483L264 445Z" fill="#68225b" stroke="#68225b"></path><path d="M608 234L604 171L532 196Z" fill="#2c2449" stroke="#2c2449"></path><path d="M566 102L530 83L509 124Z" fill="#522558" stroke="#522558"></path><path d="M331 0L270 62L366 90Z" fill="#a40b4d" stroke="#a40b4d"></path><path d="M282 90L210 74L212 133Z" fill="#a40b4d" stroke="#a40b4d"></path><path d="M602 136L566 102L532 196Z" fill="#a40b4d" stroke="#a40b4d"></path><path d="M318 537L380 545L351 502Z" fill="#7d1c5a" stroke="#7d1c5a"></path><path d="M351 502L380 545L411 455Z" fill="#3e2552" stroke="#3e2552"></path><path d="M318 537L351 502L278 497Z" fill="#921455" stroke="#921455"></path><path d="M237 566L318 537L278 497Z" fill="#b50942" stroke="#b50942"></path><path d="M654 121L602 136L604 171Z" fill="#cb2821" stroke="#cb2821"></path><path d="M604 171L602 136L532 196Z" fill="#68225b" stroke="#68225b"></path><path d="M665 308L608 234L595 293Z" fill="#1e213d" stroke="#1e213d"></path><path d="M608 234L643 210L604 171Z" fill="#1e213d" stroke="#1e213d"></path><path d="M114 208L163 259L174 175Z" fill="#2c2449" stroke="#2c2449"></path><path d="M114 208L117 237L163 259Z" fill="#3e2552" stroke="#3e2552"></path><path d="M151 301L108 326L171 390Z" fill="#cb2821" stroke="#cb2821"></path><path d="M270 62L210 74L282 90Z" fill="#c21634" stroke="#c21634"></path><path d="M105 107L114 208L174 175Z" fill="#3e2552" stroke="#3e2552"></path><path d="M117 237L108 326L151 301Z" fill="#a40b4d" stroke="#a40b4d"></path><path d="M171 390L142 425L235 483Z" fill="#c21634" stroke="#c21634"></path><path d="M120 385L142 425L171 390Z" fill="#a40b4d" stroke="#a40b4d"></path><path d="M235 483L208 519L278 497Z" fill="#68225b" stroke="#68225b"></path><path d="M105 107L174 175L186 138Z" fill="#522558" stroke="#522558"></path><path d="M117 237L88 320L108 326Z" fill="#522558" stroke="#522558"></path><path d="M678 388L665 308L594 379Z" fill="#522558" stroke="#522558"></path><path d="M594 379L665 308L595 293Z" fill="#c21634" stroke="#c21634"></path><path d="M654 121L586 88L602 136Z" fill="#7d1c5a" stroke="#7d1c5a"></path><path d="M602 136L586 88L566 102Z" fill="#7d1c5a" stroke="#7d1c5a"></path><path d="M566 102L586 88L530 83Z" fill="#cb2821" stroke="#cb2821"></path><path d="M450 0L399 52L481 67Z" fill="#3e2552" stroke="#3e2552"></path><path d="M450 0L427 0L399 52Z" fill="#cb2821" stroke="#cb2821"></path><path d="M108 326L120 385L171 390Z" fill="#c21634" stroke="#c21634"></path><path d="M359 600L398 569L380 545Z" fill="#68225b" stroke="#68225b"></path><path d="M380 545L398 569L477 508Z" fill="#7d1c5a" stroke="#7d1c5a"></path><path d="M549 566L591 483L530 463Z" fill="#921455" stroke="#921455"></path><path d="M530 463L591 483L555 396Z" fill="#2c2449" stroke="#2c2449"></path><path d="M496 550L530 463L477 508Z" fill="#3e2552" stroke="#3e2552"></path><path d="M398 569L496 550L477 508Z" fill="#b50942" stroke="#b50942"></path><path d="M450 0L481 67L569 0Z" fill="#2c2449" stroke="#2c2449"></path><path d="M386 41L331 0L366 90Z" fill="#522558" stroke="#522558"></path><path d="M270 62L241 0L210 74Z" fill="#522558" stroke="#522558"></path><path d="M427 0L331 0L386 41Z" fill="#a40b4d" stroke="#a40b4d"></path><path d="M181 507L208 519L235 483Z" fill="#b50942" stroke="#b50942"></path><path d="M318 537L359 600L380 545Z" fill="#7d1c5a" stroke="#7d1c5a"></path><path d="M569 0L481 67L530 83Z" fill="#a40b4d" stroke="#a40b4d"></path><path d="M591 483L654 408L579 390Z" fill="#b50942" stroke="#b50942"></path><path d="M49 228L88 320L117 237Z" fill="#2c2449" stroke="#2c2449"></path><path d="M108 326L60 371L120 385Z" fill="#2c2449" stroke="#2c2449"></path><path d="M121 481L181 507L142 425Z" fill="#cb2821" stroke="#cb2821"></path><path d="M142 425L181 507L235 483Z" fill="#c21634" stroke="#c21634"></path><path d="M331 0L281 0L270 62Z" fill="#c21634" stroke="#c21634"></path><path d="M654 408L678 388L594 379Z" fill="#2c2449" stroke="#2c2449"></path><path d="M655 466L678 388L654 408Z" fill="#7d1c5a" stroke="#7d1c5a"></path><path d="M325 600L359 600L318 537Z" fill="#522558" stroke="#522558"></path><path d="M398 569L428 600L496 550Z" fill="#921455" stroke="#921455"></path><path d="M237 566L278 497L208 519Z" fill="#2c2449" stroke="#2c2449"></path><path d="M687 168L654 121L604 171Z" fill="#cb2821" stroke="#cb2821"></path><path d="M586 88L569 0L530 83Z" fill="#522558" stroke="#522558"></path><path d="M687 168L604 171L643 210Z" fill="#a40b4d" stroke="#a40b4d"></path><path d="M705 296L643 210L665 308Z" fill="#3e2552" stroke="#3e2552"></path><path d="M182 600L237 566L208 519Z" fill="#a40b4d" stroke="#a40b4d"></path><path d="M359 600L428 600L398 569Z" fill="#2c2449" stroke="#2c2449"></path><path d="M496 550L549 566L530 463Z" fill="#c21634" stroke="#c21634"></path><path d="M281 0L241 0L270 62Z" fill="#68225b" stroke="#68225b"></path><path d="M210 74L105 107L186 138Z" fill="#2c2449" stroke="#2c2449"></path><path d="M268 600L325 600L318 537Z" fill="#68225b" stroke="#68225b"></path><path d="M678 388L705 296L665 308Z" fill="#1e213d" stroke="#1e213d"></path><path d="M722 184L687 168L643 210Z" fill="#cb2821" stroke="#cb2821"></path><path d="M511 600L549 566L496 550Z" fill="#7d1c5a" stroke="#7d1c5a"></path><path d="M591 483L655 466L654 408Z" fill="#b50942" stroke="#b50942"></path><path d="M613 525L655 466L591 483Z" fill="#1e213d" stroke="#1e213d"></path><path d="M85 491L121 481L142 425Z" fill="#522558" stroke="#522558"></path><path d="M181 507L182 600L208 519Z" fill="#cb2821" stroke="#cb2821"></path><path d="M85 491L142 425L31 404Z" fill="#1e213d" stroke="#1e213d"></path><path d="M549 566L613 525L591 483Z" fill="#522558" stroke="#522558"></path><path d="M162 33L105 107L210 74Z" fill="#cb2821" stroke="#cb2821"></path><path d="M114 208L49 228L117 237Z" fill="#921455" stroke="#921455"></path><path d="M105 107L69 179L114 208Z" fill="#c21634" stroke="#c21634"></path><path d="M428 600L499 600L496 550Z" fill="#68225b" stroke="#68225b"></path><path d="M549 566L600 600L613 525Z" fill="#522558" stroke="#522558"></path><path d="M182 600L268 600L237 566Z" fill="#a40b4d" stroke="#a40b4d"></path><path d="M237 566L268 600L318 537Z" fill="#921455" stroke="#921455"></path><path d="M0 326L60 371L88 320Z" fill="#c21634" stroke="#c21634"></path><path d="M88 320L60 371L108 326Z" fill="#921455" stroke="#921455"></path><path d="M200 0L162 33L210 74Z" fill="#cb2821" stroke="#cb2821"></path><path d="M499 600L511 600L496 550Z" fill="#b50942" stroke="#b50942"></path><path d="M241 0L200 0L210 74Z" fill="#3e2552" stroke="#3e2552"></path><path d="M572 0L569 0L586 88Z" fill="#1e213d" stroke="#1e213d"></path><path d="M69 179L49 228L114 208Z" fill="#a40b4d" stroke="#a40b4d"></path><path d="M634 0L572 0L586 88Z" fill="#522558" stroke="#522558"></path><path d="M661 72L586 88L654 121Z" fill="#1e213d" stroke="#1e213d"></path><path d="M705 296L726 256L643 210Z" fill="#522558" stroke="#522558"></path><path d="M770 276L726 256L705 296Z" fill="#1e213d" stroke="#1e213d"></path><path d="M738 380L705 296L678 388Z" fill="#2c2449" stroke="#2c2449"></path><path d="M722 184L691 122L687 168Z" fill="#a40b4d" stroke="#a40b4d"></path><path d="M687 168L691 122L654 121Z" fill="#2c2449" stroke="#2c2449"></path><path d="M691 122L661 72L654 121Z" fill="#522558" stroke="#522558"></path><path d="M76 48L76 120L105 107Z" fill="#522558" stroke="#522558"></path><path d="M105 107L76 120L69 179Z" fill="#68225b" stroke="#68225b"></path><path d="M0 160L0 251L49 228Z" fill="#2c2449" stroke="#2c2449"></path><path d="M726 256L722 184L643 210Z" fill="#68225b" stroke="#68225b"></path><path d="M85 491L125 536L121 481Z" fill="#a40b4d" stroke="#a40b4d"></path><path d="M121 481L125 536L181 507Z" fill="#cb2821" stroke="#cb2821"></path><path d="M31 404L142 425L120 385Z" fill="#921455" stroke="#921455"></path><path d="M749 396L678 388L732 483Z" fill="#3e2552" stroke="#3e2552"></path><path d="M749 396L738 380L678 388Z" fill="#3e2552" stroke="#3e2552"></path><path d="M726 256L798 214L722 184Z" fill="#a40b4d" stroke="#a40b4d"></path><path d="M0 377L31 404L60 371Z" fill="#cb2821" stroke="#cb2821"></path><path d="M60 371L31 404L120 385Z" fill="#3e2552" stroke="#3e2552"></path><path d="M125 536L182 600L181 507Z" fill="#921455" stroke="#921455"></path><path d="M76 48L90 50L105 0Z" fill="#921455" stroke="#921455"></path><path d="M162 33L90 50L105 107Z" fill="#b50942" stroke="#b50942"></path><path d="M0 160L49 228L69 179Z" fill="#921455" stroke="#921455"></path><path d="M692 0L661 72L732 30Z" fill="#7d1c5a" stroke="#7d1c5a"></path><path d="M692 0L634 0L661 72Z" fill="#1e213d" stroke="#1e213d"></path><path d="M661 72L634 0L586 88Z" fill="#cb2821" stroke="#cb2821"></path><path d="M738 380L759 350L705 296Z" fill="#7d1c5a" stroke="#7d1c5a"></path><path d="M732 483L678 388L655 466Z" fill="#522558" stroke="#522558"></path><path d="M738 380L749 396L759 350Z" fill="#b50942" stroke="#b50942"></path><path d="M511 600L600 600L549 566Z" fill="#3e2552" stroke="#3e2552"></path><path d="M613 525L689 534L655 466Z" fill="#1e213d" stroke="#1e213d"></path><path d="M759 350L770 276L705 296Z" fill="#cb2821" stroke="#cb2821"></path><path d="M722 184L768 151L691 122Z" fill="#3e2552" stroke="#3e2552"></path><path d="M0 160L69 179L76 120Z" fill="#68225b" stroke="#68225b"></path><path d="M49 228L0 251L88 320Z" fill="#2c2449" stroke="#2c2449"></path><path d="M0 251L0 326L88 320Z" fill="#7d1c5a" stroke="#7d1c5a"></path><path d="M105 0L90 50L162 33Z" fill="#b50942" stroke="#b50942"></path><path d="M90 50L76 48L105 107Z" fill="#7d1c5a" stroke="#7d1c5a"></path><path d="M696 548L689 534L664 600Z" fill="#68225b" stroke="#68225b"></path><path d="M0 326L0 377L60 371Z" fill="#a40b4d" stroke="#a40b4d"></path><path d="M31 404L0 484L85 491Z" fill="#c21634" stroke="#c21634"></path><path d="M200 0L105 0L162 33Z" fill="#921455" stroke="#921455"></path><path d="M689 534L732 483L655 466Z" fill="#b50942" stroke="#b50942"></path><path d="M835 329L770 276L759 350Z" fill="#522558" stroke="#522558"></path><path d="M0 377L0 397L31 404Z" fill="#921455" stroke="#921455"></path><path d="M85 491L80 547L125 536Z" fill="#b50942" stroke="#b50942"></path><path d="M125 536L94 600L182 600Z" fill="#68225b" stroke="#68225b"></path><path d="M0 531L80 547L85 491Z" fill="#c21634" stroke="#c21634"></path><path d="M0 102L0 160L76 120Z" fill="#b50942" stroke="#b50942"></path><path d="M0 102L76 120L0 72Z" fill="#522558" stroke="#522558"></path><path d="M798 214L768 151L722 184Z" fill="#522558" stroke="#522558"></path><path d="M664 600L689 534L613 525Z" fill="#c21634" stroke="#c21634"></path><path d="M689 534L696 548L732 483Z" fill="#921455" stroke="#921455"></path><path d="M732 30L661 72L691 122Z" fill="#3e2552" stroke="#3e2552"></path><path d="M770 276L798 214L726 256Z" fill="#68225b" stroke="#68225b"></path><path d="M850 212L798 214L770 276Z" fill="#c21634" stroke="#c21634"></path><path d="M806 421L759 350L749 396Z" fill="#cb2821" stroke="#cb2821"></path><path d="M600 600L664 600L613 525Z" fill="#1e213d" stroke="#1e213d"></path><path d="M0 72L76 120L76 48Z" fill="#2c2449" stroke="#2c2449"></path><path d="M84 600L94 600L80 547Z" fill="#b50942" stroke="#b50942"></path><path d="M80 547L94 600L125 536Z" fill="#c21634" stroke="#c21634"></path><path d="M787 87L732 30L691 122Z" fill="#a40b4d" stroke="#a40b4d"></path><path d="M782 116L691 122L768 151Z" fill="#2c2449" stroke="#2c2449"></path><path d="M842 171L782 116L768 151Z" fill="#1e213d" stroke="#1e213d"></path><path d="M0 397L0 484L31 404Z" fill="#1e213d" stroke="#1e213d"></path><path d="M0 600L84 600L80 547Z" fill="#68225b" stroke="#68225b"></path><path d="M44 0L0 72L76 48Z" fill="#7d1c5a" stroke="#7d1c5a"></path><path d="M808 457L732 483L757 559Z" fill="#921455" stroke="#921455"></path><path d="M808 457L749 396L732 483Z" fill="#68225b" stroke="#68225b"></path><path d="M808 457L806 421L749 396Z" fill="#7d1c5a" stroke="#7d1c5a"></path><path d="M105 0L44 0L76 48Z" fill="#a40b4d" stroke="#a40b4d"></path><path d="M822 69L787 87L782 116Z" fill="#a40b4d" stroke="#a40b4d"></path><path d="M782 116L787 87L691 122Z" fill="#522558" stroke="#522558"></path><path d="M841 356L835 329L759 350Z" fill="#2c2449" stroke="#2c2449"></path><path d="M798 214L842 171L768 151Z" fill="#c21634" stroke="#c21634"></path><path d="M0 484L0 531L85 491Z" fill="#7d1c5a" stroke="#7d1c5a"></path><path d="M757 559L732 483L696 548Z" fill="#c21634" stroke="#c21634"></path><path d="M806 421L841 356L759 350Z" fill="#c21634" stroke="#c21634"></path><path d="M828 417L841 356L806 421Z" fill="#522558" stroke="#522558"></path><path d="M835 329L850 212L770 276Z" fill="#921455" stroke="#921455"></path><path d="M738 600L757 559L696 548Z" fill="#68225b" stroke="#68225b"></path><path d="M808 457L828 417L806 421Z" fill="#522558" stroke="#522558"></path><path d="M900 242L850 212L835 329Z" fill="#b50942" stroke="#b50942"></path><path d="M850 212L842 171L798 214Z" fill="#68225b" stroke="#68225b"></path><path d="M757 559L852 496L808 457Z" fill="#68225b" stroke="#68225b"></path><path d="M808 457L852 496L828 417Z" fill="#7d1c5a" stroke="#7d1c5a"></path><path d="M664 600L738 600L696 548Z" fill="#7d1c5a" stroke="#7d1c5a"></path><path d="M44 0L0 0L0 72Z" fill="#68225b" stroke="#68225b"></path><path d="M856 137L822 69L782 116Z" fill="#cb2821" stroke="#cb2821"></path><path d="M787 87L796 0L732 30Z" fill="#2c2449" stroke="#2c2449"></path><path d="M732 30L796 0L692 0Z" fill="#a40b4d" stroke="#a40b4d"></path><path d="M738 600L759 600L757 559Z" fill="#b50942" stroke="#b50942"></path><path d="M900 160L856 137L842 171Z" fill="#7d1c5a" stroke="#7d1c5a"></path><path d="M842 171L856 137L782 116Z" fill="#522558" stroke="#522558"></path><path d="M900 160L842 171L850 212Z" fill="#b50942" stroke="#b50942"></path><path d="M0 531L0 600L80 547Z" fill="#68225b" stroke="#68225b"></path><path d="M820 0L796 0L822 69Z" fill="#cb2821" stroke="#cb2821"></path><path d="M822 69L796 0L787 87Z" fill="#522558" stroke="#522558"></path><path d="M855 556L852 496L757 559Z" fill="#3e2552" stroke="#3e2552"></path><path d="M900 338L835 329L841 356Z" fill="#522558" stroke="#522558"></path><path d="M900 338L900 313L835 329Z" fill="#7d1c5a" stroke="#7d1c5a"></path><path d="M900 338L841 356L900 432Z" fill="#1e213d" stroke="#1e213d"></path><path d="M900 313L900 242L835 329Z" fill="#2c2449" stroke="#2c2449"></path><path d="M900 432L841 356L828 417Z" fill="#cb2821" stroke="#cb2821"></path><path d="M900 47L820 0L822 69Z" fill="#68225b" stroke="#68225b"></path><path d="M900 47L822 69L856 137Z" fill="#921455" stroke="#921455"></path><path d="M900 242L900 160L850 212Z" fill="#2c2449" stroke="#2c2449"></path><path d="M852 496L900 432L828 417Z" fill="#7d1c5a" stroke="#7d1c5a"></path><path d="M900 160L900 137L856 137Z" fill="#c21634" stroke="#c21634"></path><path d="M829 600L855 556L757 559Z" fill="#b50942" stroke="#b50942"></path><path d="M852 496L900 479L900 432Z" fill="#522558" stroke="#522558"></path><path d="M759 600L829 600L757 559Z" fill="#1e213d" stroke="#1e213d"></path><path d="M900 562L900 479L852 496Z" fill="#522558" stroke="#522558"></path><path d="M900 137L900 47L856 137Z" fill="#7d1c5a" stroke="#7d1c5a"></path><path d="M900 600L900 562L855 556Z" fill="#522558" stroke="#522558"></path><path d="M855 556L900 562L852 496Z" fill="#3e2552" stroke="#3e2552"></path><path d="M900 47L900 0L820 0Z" fill="#68225b" stroke="#68225b"></path><path d="M829 600L900 600L855 556Z" fill="#b50942" stroke="#b50942"></path></g></svg>